<?xml version="1.0" encoding="UTF-8" standalone="no"?>
<!-- Created with Inkscape (http://www.inkscape.org/) -->

<svg
   width="167.94534mm"
   height="167.91417mm"
   viewBox="0 0 167.94534 167.91417"
   version="1.1"
   id="svg1"
   inkscape:version="1.4.4 (dcaf3e7d9e, 2026-05-05)"
   sodipodi:docname="lokaord_logo_draft_08.svg"
   xmlns:inkscape="http://www.inkscape.org/namespaces/inkscape"
   xmlns:sodipodi="http://sodipodi.sourceforge.net/DTD/sodipodi-0.dtd"
   xmlns="http://www.w3.org/2000/svg"
   xmlns:svg="http://www.w3.org/2000/svg">
  <sodipodi:namedview
     id="namedview1"
     pagecolor="#afafaf"
     bordercolor="#000000"
     borderopacity="0.25"
     inkscape:showpageshadow="2"
     inkscape:pageopacity="0.0"
     inkscape:pagecheckerboard="0"
     inkscape:deskcolor="#d1d1d1"
     inkscape:document-units="mm"
     inkscape:zoom="1.4142136"
     inkscape:cx="295.57063"
     inkscape:cy="362.03867"
     inkscape:window-width="2560"
     inkscape:window-height="1335"
     inkscape:window-x="0"
     inkscape:window-y="0"
     inkscape:window-maximized="1"
     inkscape:current-layer="layer1">
    <inkscape:page
       x="0"
       y="0"
       width="167.94534"
       height="167.91417"
       id="page2"
       margin="0"
       bleed="0" />
  </sodipodi:namedview>
  <defs
     id="defs1" />
  <g
     inkscape:label="Layer 1"
     inkscape:groupmode="layer"
     id="layer1"
     transform="translate(-21.179685,-13)">
    <rect
       style="fill:#000000;fill-opacity:0;fill-rule:evenodd;stroke-width:0.264583"
       id="rect1"
       width="124.19039"
       height="124.19039"
       x="80.839149"
       y="-67.887306"
       ry="13.475979"
       transform="rotate(45)"
       inkscape:export-filename="rect4.png"
       inkscape:export-xdpi="96"
       inkscape:export-ydpi="96" />
    <g
       id="rect2-1"
       style="opacity:1;stroke:#ffffff;stroke-opacity:1">
      <path
         style="baseline-shift:baseline;display:inline;overflow:visible;vector-effect:none;fill:#ffffff;fill-rule:evenodd;stroke:#ffffff;stroke-opacity:1;enable-background:accumulate;stop-color:#000000;stop-opacity:1"
         d="m 105.11865,14.605827 c -6.88014,0 -12.418882,5.54192 -12.418882,12.425598 V 166.88335 c 0,6.88368 5.538742,12.4256 12.418882,12.4256 2.39088,0 4.61992,-0.66922 6.51071,-1.83141 0.87504,-0.31447 1.697,-0.82367 2.40037,-1.52704 l 49.48329,-49.48328 c 2.54426,-2.54426 2.54426,-6.64071 0,-9.18497 l -8.19123,-8.19123 c -2.54426,-2.54426 -6.64071,-2.54426 -9.18497,0 L 117.53753,137.6903 V 27.031425 c 0,-6.883678 -5.53873,-12.425598 -12.41888,-12.425598 z m 13.1284,7.677051 0.37465,1.122412 0.32711,1.543575 0.18965,1.286743 0.0445,0.443384 v 2.713012 l 0.006,29.34963 5.1e-4,0.001 v 0.30334 l 37.30574,36.98534 1.3503,1.349788 -8.49509,8.296138 1.0294,-0.0935 h 1.07538 l 1.40354,0.23409 1.02887,0.42116 1.16944,0.65474 1.07539,0.79479 8.69973,8.69972 0.93534,1.12242 0.46767,1.02939 0.37414,1.07539 0.18707,1.02939 0.047,1.26246 -0.047,1.0759 17.54001,-17.44596 0.79479,-1.12241 0.51469,-0.79531 0.60772,-1.40301 0.03,-0.093 5.2e-4,-0.001 c 0.79134,-1.62603 1.23455,-3.454993 1.23455,-5.391407 0,-3.243589 -1.25048,-6.179955 -3.28973,-8.371582 l -0.009,-0.01499 -0.13539,-0.149861 -0.42685,-0.47439 z m -26.660909,0.589628 -65.484375,65.583593 -1.455208,2.050521 -0.52555,1.288811 v 5.16e-4 l -5.16e-4,5.17e-4 h -5.17e-4 v 5.17e-4 c -0.85402,1.675744 -1.334802,3.576238 -1.334802,5.59294 0,2.954419 1.036498,5.655159 2.761588,7.770069 l 0.001,0.004 0.02429,0.0243 c 0.53852,0.65605 1.138893,1.25911 1.800923,1.79059 l 5.17e-4,5.2e-4 5.17e-4,5.1e-4 5.16e-4,5.2e-4 5.17e-4,5.2e-4 57.459542,57.14121 6.586161,6.58616 -0.330729,-1.25677 -0.165364,-1.85208 0.03307,-32.77526 -37.901563,-37.901564 29.831771,-29.864844 8.069792,-8.003645 0.03307,-33.833594 0.231511,-1.256771 z"
         id="path757" />
      <path
         style="baseline-shift:baseline;display:inline;overflow:visible;vector-effect:none;fill:#ffffff;fill-rule:evenodd;stroke:#ffffff;stroke-opacity:1;enable-background:accumulate;stop-color:#000000;stop-opacity:1"
         d="m 105.11914,13.5 c -6.06019,0 -11.124016,4.008089 -12.845703,9.5 l -1.46875,-0.908203 -65.550781,65.648437 -1.582031,2.230469 -0.294922,0.720703 -0.193782,0.485758 -0.169499,0.445883 c -0.835174,1.750416 -1.333985,3.698743 -1.333985,5.767578 0,3.073645 1.08327,5.873675 2.81836,8.130855 l 0.05078,0.20704 0.242188,0.24218 -0.07422,-0.0801 c 0.583382,0.7107 1.238898,1.36838 1.964844,1.95117 l -0.0918,-0.084 v 0.002 l 0.0039,0.004 57.460937,57.14063 9.476563,9.47656 -0.314453,-1.19336 c 2.270019,4.28096 6.717583,7.22656 11.902344,7.22656 2.5319,0 4.89578,-0.71214 6.92188,-1.91992 1.00998,-0.36952 1.9611,-0.95329 2.76953,-1.76172 l 49.48437,-49.48437 c 0.57542,-0.57542 0.94099,-1.26294 1.29297,-1.95117 l -0.0195,0.46679 19.61523,-19.50976 0.86328,-1.21875 0.57618,-0.89258 0.66601,-1.53516 0.0195,-0.0625 -0.0332,0.0684 0.002,-0.008 c 0.86301,-1.77328 1.34766,-3.769901 1.34766,-5.875001 0,-3.52772 -1.36477,-6.737859 -3.58594,-9.125 l 0.14453,0.195312 -0.0664,-0.113281 -0.21094,-0.232422 -0.44531,-0.496094 -65.43164,-65.457031 -1.28321,0.792969 C 115.82368,17.166087 110.92005,13.5 105.11914,13.5 Z m 0,2.210938 c 6.2865,-1e-6 11.3125,5.029637 11.3125,11.320312 v 113.32812 l 30.48633,-30.48632 c 2.12472,-2.12473 5.49832,-2.12473 7.62305,0 l 8.18945,8.1914 c 2.12472,2.12473 2.12472,5.49637 0,7.6211 l -49.48242,49.48242 c -0.58751,0.5875 -1.26723,1.009 -1.99219,1.26953 l -0.10742,0.0391 -0.0977,0.0586 c -1.72187,1.05836 -3.74705,1.66797 -5.93164,1.66796 -6.286489,0 -11.314452,-5.02963 -11.314453,-11.32031 V 27.03125 c 0,-6.290673 5.027964,-11.320312 11.314453,-11.320312 z m 15.07227,10.080078 62.66406,62.689453 0.4082,0.455078 0.0606,0.06641 0.0117,0.02148 0.084,0.08984 c 1.85733,1.996113 2.99414,4.65773 2.99414,7.617188 0,1.767728 -0.40337,3.429435 -1.12304,4.908205 l -0.0332,0.0645 -0.0391,0.12304 -0.55078,1.26953 -0.45313,0.69922 -0.72461,1.02539 -15.62304,15.53907 -0.18555,-1.0254 -0.41797,-1.20507 -0.55078,-1.21094 -1.0625,-1.27539 -8.79492,-8.79492 -1.19727,-0.88477 -1.28906,-0.7207 -1.20703,-0.49414 -1.0918,-0.18164 7.34766,-7.175789 -2.14258,-2.142578 -36.98047,-36.66211 v -0.101562 l -0.006,-29.091797 v -2.769531 l -0.0527,-0.523438 z m -30.306644,0.351562 -0.03125,32.451172 -7.746094,7.681641 -30.613281,30.648437 38.357421,38.357422 -0.0332,32.25977 -4.203125,-4.20118 -57.457031,-57.13867 -0.002,-0.002 -0.002,-0.002 v -0.002 l -0.04102,-0.0391 -0.04883,-0.0391 c -0.55381,-0.4446 -1.053215,-0.96027 -1.517578,-1.50977 l 0.01172,0.0449 -0.132813,-0.16601 -0.02148,-0.0254 c -9.17e-4,-0.001 -0.001,-0.003 -0.002,-0.004 l -0.0039,-0.006 c -1.566501,-1.92443 -2.507812,-4.3688 -2.507812,-7.060545 0,-1.795041 0.429187,-3.474956 1.169922,-4.970703 l 0.166015,-0.166016 v -0.242187 l 0.394532,-0.96875 1.328125,-1.871094 z M 91.59375,59.980469 V 133.89648 L 54.619141,96.921875 83.667969,67.841797 Z m 27.04883,0.08008 37.07226,36.753906 0.5586,0.558594 -9.91992,9.687501 1.02343,-0.0937 c -0.71661,0.35638 -1.42502,0.74533 -2.02148,1.34179 l -26.71289,26.71289 z"
         id="path758"
         sodipodi:nodetypes="scccccccscccccccccccscsscccccccccscccccccssscccccccccsssssccccccscccccccccccccccccccccccccccccccccccccccccccsccccccccccccccccscc" />
    </g>
    <path
       id="rect2"
       style="fill:#000000;fill-opacity:1;fill-rule:evenodd;stroke-width:0.26465"
       d="m 105.11141,14.586707 c -6.880144,0 -12.418877,5.541921 -12.418877,12.425598 V 166.86423 c 0,6.88368 5.538733,12.4256 12.418877,12.4256 2.39088,0 4.61993,-0.66922 6.51072,-1.83141 0.87504,-0.31447 1.697,-0.82367 2.40037,-1.52704 l 49.48328,-49.48328 c 2.54426,-2.54426 2.54426,-6.64071 0,-9.18497 l -8.19123,-8.19123 c -2.54426,-2.54426 -6.64071,-2.54426 -9.18497,0 l -28.59929,28.59928 V 27.012305 c 0,-6.883677 -5.53873,-12.425598 -12.41888,-12.425598 z" />
    <path
       id="rect5"
       style="fill:#1d3251;fill-opacity:1;fill-rule:evenodd;stroke-width:0.26569"
       d="m 118.23981,22.263757 0.37466,1.122412 0.32711,1.543575 0.18965,1.286744 0.0444,0.443383 v 2.713013 l 0.006,29.34963 0.001,0.001 v 0.303341 l 37.30573,36.985339 1.35031,1.349789 -8.49509,8.296137 1.02939,-0.0935 h 1.07539 l 1.40353,0.23409 1.02888,0.42116 1.16944,0.65474 1.07538,0.79479 8.69973,8.69972 0.93534,1.12242 0.46768,1.02939 0.37413,1.07539 0.18707,1.02939 0.047,1.26246 -0.047,1.0759 17.54002,-17.44596 0.79478,-1.12242 0.5147,-0.7953 0.60771,-1.40301 0.0295,-0.093 5.2e-4,-0.001 c 0.79134,-1.62603 1.23455,-3.454992 1.23455,-5.391407 0,-3.243589 -1.25048,-6.179955 -3.28973,-8.371582 l -0.009,-0.01499 -0.13539,-0.149862 -0.42685,-0.474389 z M 91.578906,22.853385 26.094531,88.436979 24.639323,90.4875 24.113774,91.77631 v 5.17e-4 l -5.17e-4,5.17e-4 h -5.17e-4 v 5.17e-4 c -0.854023,1.675744 -1.334802,3.576238 -1.334802,5.59294 0,2.954419 1.036504,5.655169 2.761588,7.770069 l 0.001,0.004 0.02429,0.0243 c 0.538526,0.65605 1.138898,1.25911 1.800923,1.79059 l 5.17e-4,5.2e-4 5.17e-4,5.1e-4 5.17e-4,5.2e-4 5.17e-4,5.2e-4 57.459541,57.14121 6.586162,6.58616 -0.33073,-1.25677 -0.165364,-1.85208 0.03307,-32.77526 -37.901563,-37.901564 29.831771,-29.864844 8.069792,-8.003646 0.03307,-33.833594 0.23151,-1.25677 z" />
    <path
       style="fill:#ffffff;fill-opacity:1;fill-rule:evenodd;stroke:none;stroke-width:2.211;stroke-dasharray:none;stroke-opacity:1"
       d="m 90.7385,22.15757 4.721159,-4.613672 -3.183268,5.564518 z"
       id="path754" />
    <path
       style="fill:#ffffff;fill-opacity:1;fill-rule:evenodd;stroke:none;stroke-width:2.211;stroke-dasharray:none;stroke-opacity:1"
       d="m 119.0873,21.580078 -4.29121,-4.001823 2.96003,4.861719 z"
       id="path755" />
    <path
       style="fill:#ffffff;fill-opacity:1;fill-rule:evenodd;stroke:none;stroke-width:2.211;stroke-dasharray:none;stroke-opacity:1"
       d="m 146.41735,107.00302 -0.0819,0.0702 -2.71571,2.97296 -0.0555,0.0848 3.59269,-2.54031 0.3274,-0.68112 z"
       id="path760" />
    <path
       style="fill:#ffffff;fill-opacity:1;fill-rule:evenodd;stroke:none;stroke-width:2.211;stroke-dasharray:none;stroke-opacity:1"
       d="m 90.553645,59.861978 0.009,73.520552 1.321313,0.97052 0.04677,-74.940704 z"
       id="path761" />
    <path
       style="fill:#ffffff;fill-opacity:1;fill-rule:evenodd;stroke:none;stroke-width:2.211;stroke-dasharray:none;stroke-opacity:1"
       d="m 119.31055,59.795833 -0.0331,75.439317 -1.10794,0.95912 0.0165,-76.894531 z"
       id="path762" />
    <path
       style="fill:#ffffff;fill-opacity:1;fill-rule:evenodd;stroke:none;stroke-width:2.211;stroke-dasharray:none;stroke-opacity:1"
       d="m 95.824475,16.604119 -0.865285,0.818513 -4.361503,4.174416 -0.80682,0.830206 1.309621,0.198782 4.747374,-4.946157 z"
       id="path763" />
    <path
       style="fill:#ffffff;fill-opacity:1;fill-rule:evenodd;stroke:none;stroke-width:2.211;stroke-dasharray:none;stroke-opacity:1"
       d="m 113.9424,16.151986 0.92604,0.810286 4.38216,4.043164 0.23978,0.256315 -0.90951,0.231511 -5.43222,-5.250326 z"
       id="path764" />
    <path
       style="fill:#ffffff;fill-opacity:1;fill-rule:evenodd;stroke:none;stroke-width:2.211;stroke-dasharray:none;stroke-opacity:1"
       d="m 94.391137,175.94171 0.05891,0.0631 1.380276,1.33191 -0.70743,-1.4324 -0.719122,-0.26309 z"
       id="path765" />
    <path
       style="fill:#ffffff;fill-opacity:1;fill-rule:evenodd;stroke:none;stroke-width:2.211;stroke-dasharray:none;stroke-opacity:1"
       d="m 145.36205,107.3392 -0.3201,0.30256 -10.80583,11.13616 1.98781,-0.60804 10.24311,-10.61728 z"
       id="path766" />
  </g>
</svg>
